<?xml version="1.0" encoding="UTF-8" standalone="no"?><!DOCTYPE svg PUBLIC "-//W3C//DTD SVG 1.1//EN" "http://www.w3.org/Graphics/SVG/1.1/DTD/svg11.dtd"><!-- Generated by graphviz version 2.40.1 (20161225.0304)
 --><!-- Title: %0 Pages: 1 --><svg xmlns="http://www.w3.org/2000/svg" xmlns:xlink="http://www.w3.org/1999/xlink" width="1157pt" height="548pt" viewBox="0.00 0.00 1157.29 548.00">
<g id="graph0" class="graph" transform="scale(1 1) rotate(0) translate(4 544)">
<title>%0</title>
<polygon fill="#ffffff" stroke="transparent" points="-4,4 -4,-544 1153.2917,-544 1153.2917,4 -4,4"/>
<!-- [root] aws_db_instance.default (expand) -->
<g id="node1" class="node">
<title>[root] aws_db_instance.default (expand)</title>
<polygon fill="none" stroke="#000000" points="244.7515,-180 90.7387,-180 90.7387,-144 244.7515,-144 244.7515,-180"/>
<text text-anchor="middle" x="167.7451" y="-157.8" font-family="Times,serif" font-size="14.00" fill="#000000">aws_db_instance.default</text>
</g>
<!-- [root] provider[&quot;registry.terraform.io/hashicorp/aws&quot;] -->
<g id="node10" class="node">
<title>[root] provider["registry.terraform.io/hashicorp/aws"]</title>
<polygon fill="none" stroke="#000000" points="274.7451,-108 -.2453,-90 274.7451,-72 549.7356,-90 274.7451,-108"/>
<text text-anchor="middle" x="274.7451" y="-85.8" font-family="Times,serif" font-size="14.00" fill="#000000">provider["registry.terraform.io/hashicorp/aws"]</text>
</g>
<!-- [root] aws_db_instance.default (expand)&#45;&gt;[root] provider[&quot;registry.terraform.io/hashicorp/aws&quot;] -->
<g id="edge1" class="edge">
<title>[root] aws_db_instance.default (expand)-&gt;[root] provider["registry.terraform.io/hashicorp/aws"]</title>
<path fill="none" stroke="#000000" d="M194.7457,-143.8314C209.0295,-134.2198 226.6848,-122.3396 241.7726,-112.1871"/>
<polygon fill="#000000" stroke="#000000" points="243.9719,-114.9259 250.3145,-106.4393 240.064,-109.1183 243.9719,-114.9259"/>
</g>
<!-- [root] aws_instance.my_instance1 (expand) -->
<g id="node2" class="node">
<title>[root] aws_instance.my_instance1 (expand)</title>
<polygon fill="none" stroke="#000000" points="364.6407,-396 192.8495,-396 192.8495,-360 364.6407,-360 364.6407,-396"/>
<text text-anchor="middle" x="278.7451" y="-373.8" font-family="Times,serif" font-size="14.00" fill="#000000">aws_instance.my_instance1</text>
</g>
<!-- [root] aws_security_group.my_sg (expand) -->
<g id="node6" class="node">
<title>[root] aws_security_group.my_sg (expand)</title>
<polygon fill="none" stroke="#000000" points="608.3228,-324 439.1674,-324 439.1674,-288 608.3228,-288 608.3228,-324"/>
<text text-anchor="middle" x="523.7451" y="-301.8" font-family="Times,serif" font-size="14.00" fill="#000000">aws_security_group.my_sg</text>
</g>
<!-- [root] aws_instance.my_instance1 (expand)&#45;&gt;[root] aws_security_group.my_sg (expand) -->
<g id="edge2" class="edge">
<title>[root] aws_instance.my_instance1 (expand)-&gt;[root] aws_security_group.my_sg (expand)</title>
<path fill="none" stroke="#000000" d="M340.2527,-359.9243C374.3281,-349.9103 416.8569,-337.412 452.3888,-326.97"/>
<polygon fill="#000000" stroke="#000000" points="453.6048,-330.2608 462.2122,-324.0831 451.6311,-323.5448 453.6048,-330.2608"/>
</g>
<!-- [root] aws_subnet.my_subnet (expand) -->
<g id="node7" class="node">
<title>[root] aws_subnet.my_subnet (expand)</title>
<polygon fill="none" stroke="#000000" points="990.0013,-324 843.4889,-324 843.4889,-288 990.0013,-288 990.0013,-324"/>
<text text-anchor="middle" x="916.7451" y="-301.8" font-family="Times,serif" font-size="14.00" fill="#000000">aws_subnet.my_subnet</text>
</g>
<!-- [root] aws_instance.my_instance1 (expand)&#45;&gt;[root] aws_subnet.my_subnet (expand) -->
<g id="edge3" class="edge">
<title>[root] aws_instance.my_instance1 (expand)-&gt;[root] aws_subnet.my_subnet (expand)</title>
<path fill="none" stroke="#000000" d="M364.742,-361.1351C367.4375,-360.7337 370.1102,-360.3538 372.7451,-360 573.5797,-333.0318 629.2247,-353.4692 833.3696,-324.0838"/>
<polygon fill="#000000" stroke="#000000" points="834.132,-327.5096 843.5203,-322.5996 833.1191,-320.5833 834.132,-327.5096"/>
</g>
<!-- [root] data.aws_ami.ubuntu (expand) -->
<g id="node9" class="node">
<title>[root] data.aws_ami.ubuntu (expand)</title>
<polygon fill="none" stroke="#000000" points="342.2171,-252 207.2731,-252 207.2731,-216 342.2171,-216 342.2171,-252"/>
<text text-anchor="middle" x="274.7451" y="-229.8" font-family="Times,serif" font-size="14.00" fill="#000000">data.aws_ami.ubuntu</text>
</g>
<!-- [root] aws_instance.my_instance1 (expand)&#45;&gt;[root] data.aws_ami.ubuntu (expand) -->
<g id="edge4" class="edge">
<title>[root] aws_instance.my_instance1 (expand)-&gt;[root] data.aws_ami.ubuntu (expand)</title>
<path fill="none" stroke="#000000" d="M278.2385,-359.7623C277.5563,-335.201 276.3353,-291.2474 275.5327,-262.3541"/>
<polygon fill="#000000" stroke="#000000" points="279.024,-261.9885 275.2476,-252.0896 272.0267,-262.183 279.024,-261.9885"/>
</g>
<!-- [root] var.instance_type -->
<g id="node12" class="node">
<title>[root] var.instance_type</title>
<polygon fill="none" stroke="#000000" points="411.0957,-324 302.3946,-324 302.3946,-288 417.0957,-288 417.0957,-318 411.0957,-324"/>
<polyline fill="none" stroke="#000000" points="411.0957,-324 411.0957,-318 "/>
<polyline fill="none" stroke="#000000" points="417.0957,-318 411.0957,-318 "/>
<text text-anchor="middle" x="359.7451" y="-301.8" font-family="Times,serif" font-size="14.00" fill="#000000">var.instance_type</text>
</g>
<!-- [root] aws_instance.my_instance1 (expand)&#45;&gt;[root] var.instance_type -->
<g id="edge5" class="edge">
<title>[root] aws_instance.my_instance1 (expand)-&gt;[root] var.instance_type</title>
<path fill="none" stroke="#000000" d="M299.1848,-359.8314C309.0656,-351.0485 321.0775,-340.3712 331.7902,-330.8489"/>
<polygon fill="#000000" stroke="#000000" points="334.1631,-333.4224 339.3119,-324.1628 329.5125,-328.1906 334.1631,-333.4224"/>
</g>
<!-- [root] aws_internet_gateway.my_igw (expand) -->
<g id="node3" class="node">
<title>[root] aws_internet_gateway.my_igw (expand)</title>
<polygon fill="none" stroke="#000000" points="793.8018,-252 603.6884,-252 603.6884,-216 793.8018,-216 793.8018,-252"/>
<text text-anchor="middle" x="698.7451" y="-229.8" font-family="Times,serif" font-size="14.00" fill="#000000">aws_internet_gateway.my_igw</text>
</g>
<!-- [root] aws_vpc.my_vpc (expand) -->
<g id="node8" class="node">
<title>[root] aws_vpc.my_vpc (expand)</title>
<polygon fill="none" stroke="#000000" points="755.3315,-180 642.1588,-180 642.1588,-144 755.3315,-144 755.3315,-180"/>
<text text-anchor="middle" x="698.7451" y="-157.8" font-family="Times,serif" font-size="14.00" fill="#000000">aws_vpc.my_vpc</text>
</g>
<!-- [root] aws_internet_gateway.my_igw (expand)&#45;&gt;[root] aws_vpc.my_vpc (expand) -->
<g id="edge6" class="edge">
<title>[root] aws_internet_gateway.my_igw (expand)-&gt;[root] aws_vpc.my_vpc (expand)</title>
<path fill="none" stroke="#000000" d="M698.7451,-215.8314C698.7451,-208.131 698.7451,-198.9743 698.7451,-190.4166"/>
<polygon fill="#000000" stroke="#000000" points="702.2452,-190.4132 698.7451,-180.4133 695.2452,-190.4133 702.2452,-190.4132"/>
</g>
<!-- [root] aws_route_table.my_route_table (expand) -->
<g id="node4" class="node">
<title>[root] aws_route_table.my_route_table (expand)</title>
<polygon fill="none" stroke="#000000" points="825.3539,-324 626.1363,-324 626.1363,-288 825.3539,-288 825.3539,-324"/>
<text text-anchor="middle" x="725.7451" y="-301.8" font-family="Times,serif" font-size="14.00" fill="#000000">aws_route_table.my_route_table</text>
</g>
<!-- [root] aws_route_table.my_route_table (expand)&#45;&gt;[root] aws_internet_gateway.my_igw (expand) -->
<g id="edge7" class="edge">
<title>[root] aws_route_table.my_route_table (expand)-&gt;[root] aws_internet_gateway.my_igw (expand)</title>
<path fill="none" stroke="#000000" d="M718.9319,-287.8314C715.9808,-279.9617 712.4593,-270.5712 709.1901,-261.8533"/>
<polygon fill="#000000" stroke="#000000" points="712.4385,-260.5476 705.6501,-252.4133 705.8842,-263.0055 712.4385,-260.5476"/>
</g>
<!-- [root] aws_route_table_association.my_rta (expand) -->
<g id="node5" class="node">
<title>[root] aws_route_table_association.my_rta (expand)</title>
<polygon fill="none" stroke="#000000" points="959.8483,-396 739.6419,-396 739.6419,-360 959.8483,-360 959.8483,-396"/>
<text text-anchor="middle" x="849.7451" y="-373.8" font-family="Times,serif" font-size="14.00" fill="#000000">aws_route_table_association.my_rta</text>
</g>
<!-- [root] aws_route_table_association.my_rta (expand)&#45;&gt;[root] aws_route_table.my_route_table (expand) -->
<g id="edge8" class="edge">
<title>[root] aws_route_table_association.my_rta (expand)-&gt;[root] aws_route_table.my_route_table (expand)</title>
<path fill="none" stroke="#000000" d="M818.4547,-359.8314C802.4475,-350.5368 782.7865,-339.1208 765.6957,-329.1971"/>
<polygon fill="#000000" stroke="#000000" points="767.4309,-326.1575 757.0255,-324.1628 763.916,-332.211 767.4309,-326.1575"/>
</g>
<!-- [root] aws_route_table_association.my_rta (expand)&#45;&gt;[root] aws_subnet.my_subnet (expand) -->
<g id="edge9" class="edge">
<title>[root] aws_route_table_association.my_rta (expand)-&gt;[root] aws_subnet.my_subnet (expand)</title>
<path fill="none" stroke="#000000" d="M866.652,-359.8314C874.5264,-351.3694 884.0371,-341.1489 892.6464,-331.8971"/>
<polygon fill="#000000" stroke="#000000" points="895.3605,-334.1183 899.6105,-324.4133 890.236,-329.3497 895.3605,-334.1183"/>
</g>
<!-- [root] aws_security_group.my_sg (expand)&#45;&gt;[root] aws_vpc.my_vpc (expand) -->
<g id="edge10" class="edge">
<title>[root] aws_security_group.my_sg (expand)-&gt;[root] aws_vpc.my_vpc (expand)</title>
<path fill="none" stroke="#000000" d="M534.6878,-287.9004C547.2582,-268.2643 569.4376,-236.9251 594.7451,-216 609.694,-203.6397 627.9337,-192.996 644.9393,-184.5047"/>
<polygon fill="#000000" stroke="#000000" points="646.7521,-187.5158 654.2311,-180.0115 643.7047,-181.214 646.7521,-187.5158"/>
</g>
<!-- [root] aws_subnet.my_subnet (expand)&#45;&gt;[root] aws_vpc.my_vpc (expand) -->
<g id="edge11" class="edge">
<title>[root] aws_subnet.my_subnet (expand)-&gt;[root] aws_vpc.my_vpc (expand)</title>
<path fill="none" stroke="#000000" d="M924.8388,-287.6661C932.2193,-267.8249 939.7551,-236.307 923.7451,-216 904.2897,-191.3228 824.5809,-176.6396 765.5303,-168.9516"/>
<polygon fill="#000000" stroke="#000000" points="765.8643,-165.4661 755.5049,-167.687 764.9882,-172.4111 765.8643,-165.4661"/>
</g>
<!-- [root] var.subnet_cidr -->
<g id="node13" class="node">
<title>[root] var.subnet_cidr</title>
<polygon fill="none" stroke="#000000" points="908.9364,-252 812.5539,-252 812.5539,-216 914.9364,-216 914.9364,-246 908.9364,-252"/>
<polyline fill="none" stroke="#000000" points="908.9364,-252 908.9364,-246 "/>
<polyline fill="none" stroke="#000000" points="914.9364,-246 908.9364,-246 "/>
<text text-anchor="middle" x="863.7451" y="-229.8" font-family="Times,serif" font-size="14.00" fill="#000000">var.subnet_cidr</text>
</g>
<!-- [root] aws_subnet.my_subnet (expand)&#45;&gt;[root] var.subnet_cidr -->
<g id="edge12" class="edge">
<title>[root] aws_subnet.my_subnet (expand)-&gt;[root] var.subnet_cidr</title>
<path fill="none" stroke="#000000" d="M903.371,-287.8314C897.3289,-279.6232 890.0689,-269.7606 883.4231,-260.7323"/>
<polygon fill="#000000" stroke="#000000" points="886.0462,-258.3918 877.2993,-252.4133 880.4089,-262.5415 886.0462,-258.3918"/>
</g>
<!-- [root] aws_vpc.my_vpc (expand)&#45;&gt;[root] provider[&quot;registry.terraform.io/hashicorp/aws&quot;] -->
<g id="edge13" class="edge">
<title>[root] aws_vpc.my_vpc (expand)-&gt;[root] provider["registry.terraform.io/hashicorp/aws"]</title>
<path fill="none" stroke="#000000" d="M642.0025,-152.3645C570.1195,-140.1579 445.5198,-118.9995 361.6265,-104.7534"/>
<polygon fill="#000000" stroke="#000000" points="362.0485,-101.2751 351.6037,-103.0515 360.8766,-108.1763 362.0485,-101.2751"/>
</g>
<!-- [root] var.vpc_cidr -->
<g id="node14" class="node">
<title>[root] var.vpc_cidr</title>
<polygon fill="none" stroke="#000000" points="736.1015,-108 655.3888,-108 655.3888,-72 742.1015,-72 742.1015,-102 736.1015,-108"/>
<polyline fill="none" stroke="#000000" points="736.1015,-108 736.1015,-102 "/>
<polyline fill="none" stroke="#000000" points="742.1015,-102 736.1015,-102 "/>
<text text-anchor="middle" x="698.7451" y="-85.8" font-family="Times,serif" font-size="14.00" fill="#000000">var.vpc_cidr</text>
</g>
<!-- [root] aws_vpc.my_vpc (expand)&#45;&gt;[root] var.vpc_cidr -->
<g id="edge14" class="edge">
<title>[root] aws_vpc.my_vpc (expand)-&gt;[root] var.vpc_cidr</title>
<path fill="none" stroke="#000000" d="M698.7451,-143.8314C698.7451,-136.131 698.7451,-126.9743 698.7451,-118.4166"/>
<polygon fill="#000000" stroke="#000000" points="702.2452,-118.4132 698.7451,-108.4133 695.2452,-118.4133 702.2452,-118.4132"/>
</g>
<!-- [root] data.aws_ami.ubuntu (expand)&#45;&gt;[root] provider[&quot;registry.terraform.io/hashicorp/aws&quot;] -->
<g id="edge15" class="edge">
<title>[root] data.aws_ami.ubuntu (expand)-&gt;[root] provider["registry.terraform.io/hashicorp/aws"]</title>
<path fill="none" stroke="#000000" d="M274.7451,-215.7623C274.7451,-191.201 274.7451,-147.2474 274.7451,-118.3541"/>
<polygon fill="#000000" stroke="#000000" points="278.2452,-118.0896 274.7451,-108.0896 271.2452,-118.0897 278.2452,-118.0896"/>
</g>
<!-- [root] var.aws_region -->
<g id="node11" class="node">
<title>[root] var.aws_region</title>
<polygon fill="none" stroke="#000000" points="319.652,-36 223.8383,-36 223.8383,0 325.652,0 325.652,-30 319.652,-36"/>
<polyline fill="none" stroke="#000000" points="319.652,-36 319.652,-30 "/>
<polyline fill="none" stroke="#000000" points="325.652,-30 319.652,-30 "/>
<text text-anchor="middle" x="274.7451" y="-13.8" font-family="Times,serif" font-size="14.00" fill="#000000">var.aws_region</text>
</g>
<!-- [root] provider[&quot;registry.terraform.io/hashicorp/aws&quot;]&#45;&gt;[root] var.aws_region -->
<g id="edge22" class="edge">
<title>[root] provider["registry.terraform.io/hashicorp/aws"]-&gt;[root] var.aws_region</title>
<path fill="none" stroke="#000000" d="M274.7451,-71.8314C274.7451,-64.131 274.7451,-54.9743 274.7451,-46.4166"/>
<polygon fill="#000000" stroke="#000000" points="278.2452,-46.4132 274.7451,-36.4133 271.2452,-46.4133 278.2452,-46.4132"/>
</g>
<!-- [root] output.security_group_id (expand) -->
<g id="node15" class="node">
<title>[root] output.security_group_id (expand)</title>
<ellipse fill="none" stroke="#000000" cx="551.7451" cy="-378" rx="169.5564" ry="18"/>
<text text-anchor="middle" x="551.7451" y="-373.8" font-family="Times,serif" font-size="14.00" fill="#000000">[root] output.security_group_id (expand)</text>
</g>
<!-- [root] output.security_group_id (expand)&#45;&gt;[root] aws_security_group.my_sg (expand) -->
<g id="edge16" class="edge">
<title>[root] output.security_group_id (expand)-&gt;[root] aws_security_group.my_sg (expand)</title>
<path fill="none" stroke="#000000" d="M544.6795,-359.8314C541.6191,-351.9617 537.9672,-342.5712 534.5769,-333.8533"/>
<polygon fill="#000000" stroke="#000000" points="537.7924,-332.4647 530.9058,-324.4133 531.2683,-335.0019 537.7924,-332.4647"/>
</g>
<!-- [root] output.subnet_id (expand) -->
<g id="node16" class="node">
<title>[root] output.subnet_id (expand)</title>
<ellipse fill="none" stroke="#000000" cx="741.7451" cy="-450" rx="136.6289" ry="18"/>
<text text-anchor="middle" x="741.7451" y="-445.8" font-family="Times,serif" font-size="14.00" fill="#000000">[root] output.subnet_id (expand)</text>
</g>
<!-- [root] output.subnet_id (expand)&#45;&gt;[root] aws_subnet.my_subnet (expand) -->
<g id="edge17" class="edge">
<title>[root] output.subnet_id (expand)-&gt;[root] aws_subnet.my_subnet (expand)</title>
<path fill="none" stroke="#000000" d="M844.4279,-438.0595C896.8076,-429.6322 952.7989,-416.1846 968.7451,-396 984.8145,-375.6596 966.477,-349.8086 947.2863,-331.0357"/>
<polygon fill="#000000" stroke="#000000" points="949.6633,-328.4666 939.9595,-324.2136 944.8931,-333.5897 949.6633,-328.4666"/>
</g>
<!-- [root] output.vpc_id (expand) -->
<g id="node17" class="node">
<title>[root] output.vpc_id (expand)</title>
<ellipse fill="none" stroke="#000000" cx="1023.7451" cy="-450" rx="125.5933" ry="18"/>
<text text-anchor="middle" x="1023.7451" y="-445.8" font-family="Times,serif" font-size="14.00" fill="#000000">[root] output.vpc_id (expand)</text>
</g>
<!-- [root] output.vpc_id (expand)&#45;&gt;[root] aws_vpc.my_vpc (expand) -->
<g id="edge18" class="edge">
<title>[root] output.vpc_id (expand)-&gt;[root] aws_vpc.my_vpc (expand)</title>
<path fill="none" stroke="#000000" d="M1024.1815,-431.76C1024.1561,-385.3219 1016.699,-262.9832 941.7451,-216 912.7819,-197.845 826.8235,-181.5074 765.3692,-171.6737"/>
<polygon fill="#000000" stroke="#000000" points="765.7709,-168.1939 755.3476,-170.0926 764.68,-175.1083 765.7709,-168.1939"/>
</g>
<!-- [root] provider[&quot;registry.terraform.io/hashicorp/aws&quot;] (close) -->
<g id="node18" class="node">
<title>[root] provider["registry.terraform.io/hashicorp/aws"] (close)</title>
<ellipse fill="none" stroke="#000000" cx="291.7451" cy="-450" rx="247.2168" ry="18"/>
<text text-anchor="middle" x="291.7451" y="-445.8" font-family="Times,serif" font-size="14.00" fill="#000000">[root] provider["registry.terraform.io/hashicorp/aws"] (close)</text>
</g>
<!-- [root] provider[&quot;registry.terraform.io/hashicorp/aws&quot;] (close)&#45;&gt;[root] aws_db_instance.default (expand) -->
<g id="edge19" class="edge">
<title>[root] provider["registry.terraform.io/hashicorp/aws"] (close)-&gt;[root] aws_db_instance.default (expand)</title>
<path fill="none" stroke="#000000" d="M230.4271,-432.4555C212.5066,-424.2827 194.7871,-412.5735 183.7451,-396 141.5393,-332.6511 152.4415,-237.0439 161.3953,-190.07"/>
<polygon fill="#000000" stroke="#000000" points="164.8768,-190.5115 163.4262,-180.0164 158.0154,-189.1254 164.8768,-190.5115"/>
</g>
<!-- [root] provider[&quot;registry.terraform.io/hashicorp/aws&quot;] (close)&#45;&gt;[root] aws_instance.my_instance1 (expand) -->
<g id="edge20" class="edge">
<title>[root] provider["registry.terraform.io/hashicorp/aws"] (close)-&gt;[root] aws_instance.my_instance1 (expand)</title>
<path fill="none" stroke="#000000" d="M288.4647,-431.8314C287.0743,-424.131 285.421,-414.9743 283.8759,-406.4166"/>
<polygon fill="#000000" stroke="#000000" points="287.2909,-405.6322 282.0697,-396.4133 280.4023,-406.8761 287.2909,-405.6322"/>
</g>
<!-- [root] provider[&quot;registry.terraform.io/hashicorp/aws&quot;] (close)&#45;&gt;[root] aws_route_table_association.my_rta (expand) -->
<g id="edge21" class="edge">
<title>[root] provider["registry.terraform.io/hashicorp/aws"] (close)-&gt;[root] aws_route_table_association.my_rta (expand)</title>
<path fill="none" stroke="#000000" d="M423.9391,-434.7076C508.503,-424.6938 620.8105,-410.9683 729.3865,-396.1683"/>
<polygon fill="#000000" stroke="#000000" points="730.1099,-399.602 739.5434,-394.7791 729.1613,-392.6666 730.1099,-399.602"/>
</g>
<!-- [root] root -->
<g id="node19" class="node">
<title>[root] root</title>
<ellipse fill="none" stroke="#000000" cx="655.7451" cy="-522" rx="50.9823" ry="18"/>
<text text-anchor="middle" x="655.7451" y="-517.8" font-family="Times,serif" font-size="14.00" fill="#000000">[root] root</text>
</g>
<!-- [root] root&#45;&gt;[root] output.security_group_id (expand) -->
<g id="edge23" class="edge">
<title>[root] root-&gt;[root] output.security_group_id (expand)</title>
<path fill="none" stroke="#000000" d="M633.8479,-505.7399C621.5489,-495.8198 606.5489,-482.3198 595.7451,-468 581.272,-448.8167 569.6047,-424.1239 561.9304,-405.4568"/>
<polygon fill="#000000" stroke="#000000" points="565.1343,-404.0416 558.1865,-396.0429 558.6298,-406.6285 565.1343,-404.0416"/>
</g>
<!-- [root] root&#45;&gt;[root] output.subnet_id (expand) -->
<g id="edge24" class="edge">
<title>[root] root-&gt;[root] output.subnet_id (expand)</title>
<path fill="none" stroke="#000000" d="M675.6914,-505.3008C686.6814,-496.0999 700.5238,-484.5108 712.6943,-474.3216"/>
<polygon fill="#000000" stroke="#000000" points="714.983,-476.9702 720.4038,-467.8671 710.4894,-471.6029 714.983,-476.9702"/>
</g>
<!-- [root] root&#45;&gt;[root] output.vpc_id (expand) -->
<g id="edge25" class="edge">
<title>[root] root-&gt;[root] output.vpc_id (expand)</title>
<path fill="none" stroke="#000000" d="M700.5012,-513.2434C759.7128,-501.6585 865.2539,-481.0091 939.5979,-466.4636"/>
<polygon fill="#000000" stroke="#000000" points="940.274,-469.8978 949.4159,-464.5427 938.9299,-463.028 940.274,-469.8978"/>
</g>
<!-- [root] root&#45;&gt;[root] provider[&quot;registry.terraform.io/hashicorp/aws&quot;] (close) -->
<g id="edge26" class="edge">
<title>[root] root-&gt;[root] provider["registry.terraform.io/hashicorp/aws"] (close)</title>
<path fill="none" stroke="#000000" d="M611.1116,-513.1714C555.7205,-502.2149 459.7446,-483.2307 387.4291,-468.9265"/>
<polygon fill="#000000" stroke="#000000" points="387.8779,-465.4475 377.3888,-466.9405 386.5196,-472.3145 387.8779,-465.4475"/>
</g>
</g>
</svg>